<svg width="40" height="40" viewBox="0 0 40 40" fill="none" xmlns="http://www.w3.org/2000/svg">
<path d="M4.5 7.5H9.39173C10.0875 7.5 10.4353 7.5 10.6972 7.68876C10.9591 7.87752 11.0691 8.20753 11.2891 8.86754L12.4999 12.5" stroke="#222222" stroke-width="2" stroke-linecap="round"/>
<path d="M30 29.1667H13.4181C12.3314 29.1667 11.788 29.1667 11.4918 28.8513C11.4326 28.7882 11.3818 28.7178 11.3407 28.6416C11.1352 28.2609 11.307 27.7454 11.6507 26.7145V26.7145C12.0294 25.5782 12.2188 25.0101 12.6377 24.65C12.7242 24.5756 12.817 24.5088 12.9149 24.4502C13.389 24.1667 13.9878 24.1667 15.1855 24.1667H24.1666" stroke="#222222" stroke-width="2" stroke-linecap="round" stroke-linejoin="round"/>
<path d="M25.1788 24.1667H16.8043C15.5251 24.1667 14.8855 24.1667 14.3846 23.8363C13.8836 23.506 13.6317 22.9181 13.1278 21.7423L10.9589 16.6818C10.1494 14.7929 9.74469 13.8485 10.1893 13.1743C10.6339 12.5 11.6614 12.5 13.7164 12.5H28.9972C31.2963 12.5 32.4458 12.5 32.8793 13.2471C33.3129 13.9942 32.7426 14.9923 31.6019 16.9884L28.6518 22.1512C28.0898 23.1346 27.8089 23.6263 27.3433 23.8965C26.8777 24.1667 26.3114 24.1667 25.1788 24.1667Z" stroke="#222222" stroke-width="2" stroke-linecap="round"/>
<circle cx="26.8" cy="32.8" r="1.8" fill="#222222"/>
<circle cx="14.8" cy="32.8" r="1.8" fill="#222222"/>
</svg>
