<svg width="40" height="40" viewBox="0 0 40 40" fill="none" xmlns="http://www.w3.org/2000/svg">
<path d="M11.6667 11.8866V7.94537C11.6667 5.79948 11.6667 4.72653 12.3563 4.12844C13.0459 3.53036 14.1081 3.6821 16.2324 3.98557L29.8486 5.93074C32.3047 6.28162 33.5328 6.45705 34.2664 7.30295C35.0001 8.14884 35.0001 9.38937 35.0001 11.8704V28.1296C35.0001 30.6106 35.0001 31.8512 34.2664 32.6971C33.5328 33.5429 32.3047 33.7184 29.8486 34.0693L16.2324 36.0144C14.1081 36.3179 13.0459 36.4696 12.3563 35.8716C11.6667 35.2735 11.6667 34.2005 11.6667 32.0546V28.4433" stroke="#33363F" stroke-width="2"/>
<path d="M26.6667 20L27.4476 19.3753L27.9474 20L27.4476 20.6247L26.6667 20ZM6.66675 21C6.11446 21 5.66675 20.5523 5.66675 20C5.66675 19.4477 6.11446 19 6.66675 19V21ZM20.781 11.042L27.4476 19.3753L25.8859 20.6247L19.2192 12.2914L20.781 11.042ZM27.4476 20.6247L20.781 28.958L19.2192 27.7086L25.8859 19.3753L27.4476 20.6247ZM26.6667 21H6.66675V19H26.6667V21Z" fill="#33363F"/>
</svg>
