<svg xmlns="http://www.w3.org/2000/svg" viewBox="0 0 100 100" preserveAspectRatio="xMidYMid" width="200" height="200" style="shape-rendering: auto; display: block; background: rgb(255, 255, 255);" xmlns:xlink="http://www.w3.org/1999/xlink"><g><g transform="rotate(0 50 50)">
  <rect fill="#000000" height="13" width="7" ry="3.64" rx="3.5" y="25.5" x="46.5">
    <animate repeatCount="indefinite" begin="-2.4024024024024024s" dur="2.7027027027027026s" keyTimes="0;1" values="1;0" attributeName="opacity"></animate>
  </rect>
</g><g transform="rotate(40 50 50)">
  <rect fill="#000000" height="13" width="7" ry="3.64" rx="3.5" y="25.5" x="46.5">
    <animate repeatCount="indefinite" begin="-2.1021021021021022s" dur="2.7027027027027026s" keyTimes="0;1" values="1;0" attributeName="opacity"></animate>
  </rect>
</g><g transform="rotate(80 50 50)">
  <rect fill="#000000" height="13" width="7" ry="3.64" rx="3.5" y="25.5" x="46.5">
    <animate repeatCount="indefinite" begin="-1.8018018018018018s" dur="2.7027027027027026s" keyTimes="0;1" values="1;0" attributeName="opacity"></animate>
  </rect>
</g><g transform="rotate(120 50 50)">
  <rect fill="#000000" height="13" width="7" ry="3.64" rx="3.5" y="25.5" x="46.5">
    <animate repeatCount="indefinite" begin="-1.5015015015015014s" dur="2.7027027027027026s" keyTimes="0;1" values="1;0" attributeName="opacity"></animate>
  </rect>
</g><g transform="rotate(160 50 50)">
  <rect fill="#000000" height="13" width="7" ry="3.64" rx="3.5" y="25.5" x="46.5">
    <animate repeatCount="indefinite" begin="-1.2012012012012012s" dur="2.7027027027027026s" keyTimes="0;1" values="1;0" attributeName="opacity"></animate>
  </rect>
</g><g transform="rotate(200 50 50)">
  <rect fill="#000000" height="13" width="7" ry="3.64" rx="3.5" y="25.5" x="46.5">
    <animate repeatCount="indefinite" begin="-0.9009009009009009s" dur="2.7027027027027026s" keyTimes="0;1" values="1;0" attributeName="opacity"></animate>
  </rect>
</g><g transform="rotate(240 50 50)">
  <rect fill="#000000" height="13" width="7" ry="3.64" rx="3.5" y="25.5" x="46.5">
    <animate repeatCount="indefinite" begin="-0.6006006006006006s" dur="2.7027027027027026s" keyTimes="0;1" values="1;0" attributeName="opacity"></animate>
  </rect>
</g><g transform="rotate(280 50 50)">
  <rect fill="#000000" height="13" width="7" ry="3.64" rx="3.5" y="25.5" x="46.5">
    <animate repeatCount="indefinite" begin="-0.3003003003003003s" dur="2.7027027027027026s" keyTimes="0;1" values="1;0" attributeName="opacity"></animate>
  </rect>
</g><g transform="rotate(320 50 50)">
  <rect fill="#000000" height="13" width="7" ry="3.64" rx="3.5" y="25.5" x="46.5">
    <animate repeatCount="indefinite" begin="0s" dur="2.7027027027027026s" keyTimes="0;1" values="1;0" attributeName="opacity"></animate>
  </rect>
</g><g></g></g><!-- [ldio] generated by https://loading.io --></svg>